<svg width="24" height="24" viewBox="0 0 24 24" fill="none" xmlns="http://www.w3.org/2000/svg">
<path d="M12.0029 1.50098C12.9975 1.50098 13.9513 1.89606 14.6546 2.59933C15.3578 3.30259 15.7529 4.25641 15.7529 5.25098V6.00098H8.25293V5.25098C8.25293 4.25641 8.64802 3.30259 9.35128 2.59933C10.0545 1.89606 11.0084 1.50098 12.0029 1.50098ZM17.2529 6.00098V5.25098C17.2529 3.85859 16.6998 2.52323 15.7152 1.53867C14.7307 0.5541 13.3953 0.000976563 12.0029 0.000976562C10.6105 0.000976563 9.27519 0.5541 8.29062 1.53867C7.30605 2.52323 6.75293 3.85859 6.75293 5.25098V6.00098H1.50293V21.001C1.50293 21.7966 1.819 22.5597 2.38161 23.1223C2.94422 23.6849 3.70728 24.001 4.50293 24.001H19.5029C20.2986 24.001 21.0616 23.6849 21.6242 23.1223C22.1869 22.5597 22.5029 21.7966 22.5029 21.001V6.00098H17.2529ZM3.00293 7.50098H21.0029V21.001C21.0029 21.3988 20.8449 21.7803 20.5636 22.0616C20.2823 22.3429 19.9008 22.501 19.5029 22.501H4.50293C4.1051 22.501 3.72357 22.3429 3.44227 22.0616C3.16096 21.7803 3.00293 21.3988 3.00293 21.001V7.50098Z" fill="white"/>
</svg>
