<svg width="106" height="62" viewBox="0 0 106 62" fill="none" xmlns="http://www.w3.org/2000/svg">
<g clip-path="url(#clip0_1706_6588)">
<path d="M75.3999 0.407227C66.0235 0.407227 57.6325 4.62513 52.0186 11.2693C54.6642 8.52649 57.8362 6.34582 61.3445 4.85783C64.8528 3.36984 68.6254 2.60513 72.4362 2.60949C88.1134 2.60949 100.827 15.3229 100.827 31.0001C100.827 46.6772 88.1134 59.3907 72.4362 59.3907C68.6254 59.395 64.8528 58.6303 61.3445 57.1423C57.8362 55.6544 54.6642 53.4737 52.0186 50.7309C57.6325 57.375 66.0235 61.5929 75.3999 61.5929C92.3014 61.5929 106 47.8941 106 31.0001C106 14.1061 92.3014 0.407227 75.3999 0.407227Z" fill="#FF6B00"/>
<path d="M23.919 19.5929H25.7928C26.4264 19.5929 27.034 19.3412 27.482 18.8932C27.93 18.4452 28.1817 17.8376 28.1817 17.204C28.1817 16.5705 27.93 15.9628 27.482 15.5148C27.034 15.0668 26.4264 14.8151 25.7928 14.8151H23.9563C23.5965 14.8151 23.2413 14.897 22.9179 15.0549C22.5945 15.2127 22.3114 15.4422 22.09 15.7259L22.0527 15.7707C20.8433 17.3235 21.9482 19.5929 23.919 19.5929ZM18.7455 28.7902H33.818C34.1425 28.8084 34.4672 28.7601 34.7724 28.6485C35.0775 28.5368 35.3567 28.3641 35.5928 28.1408C35.8289 27.9175 36.017 27.6484 36.1456 27.35C36.2741 27.0515 36.3404 26.73 36.3404 26.405C36.3404 26.0801 36.2741 25.7585 36.1456 25.4601C36.017 25.1616 35.8289 24.8925 35.5928 24.6693C35.3567 24.446 35.0775 24.2733 34.7724 24.1616C34.4672 24.0499 34.1425 24.0017 33.818 24.0199H18.7455C18.4211 24.0017 18.0964 24.0499 17.7912 24.1616C17.486 24.2733 17.2068 24.446 16.9707 24.6693C16.7346 24.8925 16.5465 25.1616 16.418 25.4601C16.2895 25.7585 16.2232 26.0801 16.2232 26.405C16.2232 26.73 16.2895 27.0515 16.418 27.35C16.5465 27.6484 16.7346 27.9175 16.9707 28.1408C17.2068 28.3641 17.486 28.5368 17.7912 28.6485C18.0964 28.7601 18.4211 28.8084 18.7455 28.7902ZM9.74984 24.0199H2.37411C1.83211 24.02 1.30657 24.2061 0.885338 24.5472C0.464105 24.8882 0.17271 25.3635 0.0598645 25.8937C0.0598645 25.9161 0.0523992 25.931 0.0523992 25.9459C-0.0197629 26.2892 -0.014445 26.6443 0.0679656 26.9853C0.150376 27.3263 0.307805 27.6447 0.528786 27.9171C0.749767 28.1896 1.02874 28.4094 1.34538 28.5604C1.66202 28.7114 2.00836 28.7899 2.35918 28.7902H9.74984C10.0743 28.8084 10.399 28.7601 10.7042 28.6485C11.0094 28.5368 11.2886 28.3641 11.5247 28.1408C11.7608 27.9175 11.9489 27.6484 12.0774 27.35C12.2059 27.0515 12.2722 26.73 12.2722 26.405C12.2722 26.0801 12.2059 25.7585 12.0774 25.4601C11.9489 25.1616 11.7608 24.8925 11.5247 24.6693C11.2886 24.446 11.0094 24.2733 10.7042 24.1616C10.399 24.0499 10.0743 24.0017 9.74984 24.0199ZM34.781 19.5929H44.2023C44.8358 19.5929 45.4435 19.3412 45.8915 18.8932C46.3395 18.4452 46.5912 17.8376 46.5912 17.204C46.5912 16.5705 46.3395 15.9628 45.8915 15.5148C45.4435 15.0668 44.8358 14.8151 44.2023 14.8151H34.781C34.1475 14.8151 33.5398 15.0668 33.0918 15.5148C32.6438 15.9628 32.3921 16.5705 32.3921 17.204C32.3921 17.8376 32.6438 18.4452 33.0918 18.8932C33.5398 19.3412 34.1475 19.5929 34.781 19.5929ZM35.9307 42.4293H33.6015C31.6307 42.4293 30.5258 44.6913 31.7352 46.2441L31.7725 46.2889C31.9939 46.5726 32.277 46.8021 32.6004 46.9599C32.9238 47.1178 33.279 47.1997 33.6388 47.1997H35.9307C36.5402 47.1656 37.1135 46.8994 37.533 46.4558C37.9524 46.0123 38.1861 45.425 38.1861 44.8145C38.1861 44.204 37.9524 43.6167 37.533 43.1732C37.1135 42.7296 36.5402 42.4634 35.9307 42.4293ZM72.5705 6.17776C67.6426 6.17007 62.8251 7.63638 58.7372 10.3882H59.7898C60.9992 10.3882 62.0145 11.3363 62.0518 12.5382C62.0598 12.8344 62.0084 13.1291 61.9005 13.405C61.7927 13.681 61.6306 13.9325 61.4239 14.1448C61.2172 14.357 60.9701 14.5257 60.6971 14.6408C60.4242 14.756 60.1309 14.8152 59.8346 14.8151H53.1905C52.5569 14.8151 51.9493 15.0668 51.5013 15.5148C51.0533 15.9628 50.8016 16.5705 50.8016 17.204C50.8016 17.8376 51.0533 18.4452 51.5013 18.8932C51.9493 19.3412 52.5569 19.5929 53.1905 19.5929H56.1244C57.3338 19.5929 58.3565 20.5336 58.3864 21.7429C58.3954 22.0394 58.3446 22.3346 58.2372 22.611C58.1297 22.8874 57.9677 23.1393 57.7608 23.3518C57.5539 23.5642 57.3064 23.7329 57.0329 23.8477C56.7595 23.9624 56.4657 24.021 56.1692 24.0199H42.8063C42.1967 24.054 41.6234 24.3201 41.204 24.7637C40.7846 25.2073 40.5508 25.7946 40.5508 26.405C40.5508 27.0155 40.7846 27.6028 41.204 28.0464C41.6234 28.4899 42.1967 28.7561 42.8063 28.7902H61.9175C63.1268 28.7902 64.1496 29.7383 64.1795 30.9477C64.1884 31.2435 64.1379 31.5381 64.0309 31.814C63.9239 32.0899 63.7626 32.3415 63.5565 32.5538C63.3504 32.7662 63.1037 32.935 62.8312 33.0502C62.5586 33.1654 62.2656 33.2247 61.9697 33.2246H55.2957C54.6862 33.2587 54.1129 33.5249 53.6935 33.9684C53.274 34.412 53.0403 34.9993 53.0403 35.6098C53.0403 36.2202 53.274 36.8075 53.6935 37.2511C54.1129 37.6947 54.6862 37.9608 55.2957 37.9949H62.5595C63.7689 37.9949 64.7841 38.943 64.8215 40.1524C64.8294 40.4486 64.778 40.7433 64.6701 41.0192C64.5623 41.2952 64.4002 41.5467 64.1936 41.759C63.9869 41.9712 63.7397 42.1399 63.4668 42.255C63.1938 42.3702 62.9005 42.4294 62.6043 42.4293H44.9189C44.5945 42.4112 44.2697 42.4594 43.9646 42.5711C43.6594 42.6827 43.3802 42.8555 43.1441 43.0787C42.908 43.302 42.7199 43.5711 42.5914 43.8696C42.4628 44.168 42.3965 44.4895 42.3965 44.8145C42.3965 45.1395 42.4628 45.461 42.5914 45.7594C42.7199 46.0579 42.908 46.327 43.1441 46.5503C43.3802 46.7735 43.6594 46.9463 43.9646 47.0579C44.2697 47.1696 44.5945 47.2178 44.9189 47.1997H59.5136C60.723 47.1997 61.7383 48.1478 61.7756 49.3571C61.7826 49.653 61.7304 49.9473 61.6222 50.2228C61.514 50.4983 61.3519 50.7494 61.1454 50.9614C60.9389 51.1735 60.6922 51.3422 60.4197 51.4577C60.1472 51.5732 59.8544 51.6332 59.5584 51.6341H58.7671C62.8491 54.3723 67.6551 55.8305 72.5705 55.8221C86.2768 55.8221 97.3926 44.7063 97.3926 30.9999C97.3926 17.2936 86.2768 6.17776 72.5705 6.17776ZM84.3507 49.6184C84.1233 49.7648 83.8682 49.863 83.6013 49.907C83.3344 49.9509 83.0614 49.9396 82.799 49.8739C82.5366 49.8081 82.2905 49.6892 82.0759 49.5246C81.8613 49.36 81.6827 49.1531 81.5512 48.9167L74.3995 36.0166L66.5012 49.1108C66.3605 49.3395 66.1745 49.5371 65.9547 49.6913C65.7349 49.8456 65.4859 49.9533 65.2229 50.0079C64.96 50.0624 64.6887 50.0627 64.4257 50.0086C64.1626 49.9545 63.9134 49.8473 63.6933 49.6934C63.4732 49.5395 63.2869 49.3423 63.1458 49.1139C63.0047 48.8854 62.9117 48.6305 62.8727 48.3648C62.8336 48.0992 62.8492 47.8283 62.9186 47.5689C62.988 47.3095 63.1097 47.067 63.2761 46.8563L73.414 34.2324L71.9732 31.642C71.264 30.3579 69.8755 29.6338 68.4197 29.7084C66.8072 29.798 65.1201 28.9022 63.4926 26.3789C60.9918 22.4969 59.5733 16.2485 61.8577 14.7703C64.1421 13.2922 69.2559 17.1667 71.7567 21.0487C73.3842 23.5645 73.5111 25.4756 72.7646 26.9015C72.4302 27.5348 72.2809 28.2495 72.3337 28.9637C72.3865 29.678 72.6393 30.3629 73.0632 30.9402L84.8584 46.7891C85.0192 47.0052 85.134 47.252 85.1957 47.5142C85.2574 47.7764 85.2647 48.0485 85.2171 48.3137C85.1695 48.5788 85.0681 48.8314 84.9191 49.0558C84.7701 49.2802 84.5766 49.4717 84.3507 49.6184ZM87.3294 24.4379C85.6049 26.9015 83.649 30.4102 80.3269 30.3878C78.8637 30.3803 77.4602 30.9402 76.7062 32.1869L75.8701 33.5755L74.937 32.3288L75.6462 31.4479C76.5644 30.3057 76.6017 28.7977 76.0866 27.4315C74.922 24.3259 77.5424 21.2726 79.2668 18.8091C80.409 17.1667 82.783 14.4941 83.746 14.3224L77.3333 23.5048C77.2572 23.6173 77.2278 23.755 77.2515 23.8888C77.2752 24.0226 77.3501 24.1419 77.4602 24.2214C77.5721 24.2995 77.7105 24.33 77.8448 24.3062C77.9792 24.2824 78.0986 24.2063 78.1769 24.0945L84.7091 14.733C84.7846 14.6275 84.8928 14.5497 85.017 14.512C85.1412 14.4742 85.2743 14.4784 85.3959 14.524H85.4033C85.4853 14.5558 85.559 14.6057 85.6189 14.6701C85.6788 14.7345 85.7234 14.8116 85.7493 14.8956C85.7751 14.9797 85.7816 15.0685 85.7682 15.1554C85.7549 15.2423 85.722 15.325 85.6721 15.3974L79.1399 24.7664C79.1017 24.8213 79.0747 24.8832 79.0603 24.9485C79.046 25.0139 79.0447 25.0814 79.0565 25.1473C79.0683 25.2131 79.0929 25.276 79.129 25.3324C79.1651 25.3887 79.212 25.4374 79.2668 25.4756C79.3217 25.5138 79.3836 25.5409 79.449 25.5552C79.5143 25.5695 79.5819 25.5708 79.6477 25.559C79.7136 25.5472 79.7765 25.5226 79.8328 25.4865C79.8891 25.4504 79.9378 25.4036 79.9761 25.3487L86.6127 15.8453C86.7003 15.7192 86.8341 15.6327 86.9851 15.6047C87.1361 15.5768 87.292 15.6096 87.419 15.696H87.4339C87.4966 15.7393 87.55 15.7946 87.5912 15.8587C87.6323 15.9228 87.6603 15.9945 87.6735 16.0695C87.6867 16.1445 87.6848 16.2214 87.668 16.2957C87.6513 16.37 87.6199 16.4402 87.5757 16.5023L80.9391 26.0131C80.861 26.125 80.8305 26.2633 80.8543 26.3977C80.8781 26.5321 80.9542 26.6515 81.066 26.7298C81.1785 26.8059 81.3163 26.8353 81.45 26.8116C81.5838 26.7879 81.7031 26.713 81.7827 26.6029L88.3148 17.2414C88.3667 17.17 88.4339 17.1112 88.5115 17.0692C88.5891 17.0273 88.6751 17.0033 88.7632 16.999C88.8513 16.9947 88.9393 17.0102 89.0206 17.0444C89.1019 17.0786 89.1745 17.1306 89.233 17.1966H89.2405C89.3235 17.2958 89.3721 17.4194 89.3788 17.5487C89.3855 17.6779 89.3501 17.8059 89.2778 17.9132L82.7382 27.2822C82.6998 27.337 82.6725 27.3989 82.6581 27.4643C82.6436 27.5297 82.6423 27.5973 82.6541 27.6632C82.6658 27.7292 82.6906 27.7921 82.7268 27.8484C82.763 27.9047 82.81 27.9533 82.8651 27.9914C82.977 28.0695 83.1153 28.1 83.2497 28.0762C83.3841 28.0524 83.5035 27.9763 83.5818 27.8645L89.9945 18.6822C90.1662 19.6452 88.4716 22.7956 87.3294 24.4379ZM22.6648 33.2246H14.5351C14.1835 33.2246 13.8364 33.3033 13.5191 33.4547C13.2018 33.6062 12.9223 33.8267 12.7012 34.1C12.4801 34.3734 12.3229 34.6927 12.2411 35.0347C12.1592 35.3766 12.1549 35.7325 12.2283 36.0763C12.2283 36.0913 12.2358 36.1062 12.2358 36.1211C12.3474 36.6519 12.6384 37.128 13.0599 37.4693C13.4814 37.8106 14.0077 37.9962 14.55 37.9949H22.6648C23.2743 37.9608 23.8477 37.6947 24.2671 37.2511C24.6865 36.8075 24.9202 36.2202 24.9202 35.6098C24.9202 34.9993 24.6865 34.412 24.2671 33.9684C23.8477 33.5249 23.2743 33.2587 22.6648 33.2246ZM46.3075 37.9949C46.6319 38.0131 46.9567 37.9649 47.2618 37.8532C47.567 37.7415 47.8462 37.5688 48.0823 37.3455C48.3184 37.1223 48.5065 36.8532 48.635 36.5547C48.7636 36.2563 48.8299 35.9347 48.8299 35.6098C48.8299 35.2848 48.7636 34.9633 48.635 34.6648C48.5065 34.3664 48.3184 34.0973 48.0823 33.874C47.8462 33.6507 47.567 33.478 47.2618 33.3663C46.9567 33.2547 46.6319 33.2064 46.3075 33.2246H31.6531C31.3286 33.2064 31.0039 33.2547 30.6987 33.3663C30.3935 33.478 30.1144 33.6507 29.8783 33.874C29.6421 34.0973 29.4541 34.3664 29.3255 34.6648C29.197 34.9633 29.1307 35.2848 29.1307 35.6098C29.1307 35.9347 29.197 36.2563 29.3255 36.5547C29.4541 36.8532 29.6421 37.1223 29.8783 37.3455C30.1144 37.5688 30.3935 37.7415 30.6987 37.8532C31.0039 37.9649 31.3286 38.0131 31.6531 37.9949H46.3075Z" fill="#FF6B00"/>
</g>
<defs>
<clipPath id="clip0_1706_6588">
<rect width="106" height="61.1857" fill="white" transform="translate(0 0.407227)"/>
</clipPath>
</defs>
</svg>
