<svg width="64" height="64" viewBox="0 0 64 64" fill="none" xmlns="http://www.w3.org/2000/svg">
<rect width="64" height="64" rx="31" fill="#17AE30"/>
<g clip-path="url(#clip0_3099_2578)">
<path d="M46.2079 19.9122C46.4127 19.7033 46.657 19.5374 46.9267 19.4241C47.1964 19.3108 47.4859 19.2524 47.7784 19.2524C48.0709 19.2524 48.3605 19.3108 48.6302 19.4241C48.8998 19.5374 49.1442 19.7033 49.3489 19.9122C50.2069 20.7792 50.2189 22.1802 49.3789 23.0622L31.6399 44.0322C31.4385 44.2534 31.1941 44.4312 30.9217 44.5546C30.6492 44.6781 30.3544 44.7446 30.0554 44.7503C29.7563 44.7559 29.4592 44.7004 29.1823 44.5873C28.9054 44.4741 28.6545 44.3057 28.4449 44.0922L17.6509 33.1542C17.2347 32.7297 17.0015 32.1588 17.0015 31.5642C17.0015 30.9697 17.2347 30.3988 17.6509 29.9742C17.8557 29.7653 18.1 29.5994 18.3697 29.4861C18.6394 29.3728 18.9289 29.3144 19.2214 29.3144C19.5139 29.3144 19.8035 29.3728 20.0732 29.4861C20.3428 29.5994 20.5872 29.7653 20.7919 29.9742L29.9479 39.2532L46.1479 19.9782C46.1666 19.9551 46.1866 19.933 46.2079 19.9122Z" fill="white"/>
</g>
<defs>
<clipPath id="clip0_3099_2578">
<rect width="48" height="48" fill="white" transform="translate(8 8)"/>
</clipPath>
</defs>
</svg>
