<svg width="213" height="124" viewBox="0 0 213 124" fill="none" xmlns="http://www.w3.org/2000/svg">
<path d="M151.511 0.129028C132.67 0.129028 115.809 8.60463 104.528 21.9556C109.844 16.4441 116.218 12.0622 123.268 9.07223C130.317 6.08221 137.898 4.54558 145.556 4.55434C177.058 4.55434 202.605 30.1011 202.605 61.6034C202.605 93.1056 177.058 118.652 145.556 118.652C137.898 118.661 130.317 117.125 123.268 114.134C116.218 111.144 109.844 106.763 104.528 101.251C115.809 114.602 132.67 123.078 151.511 123.078C185.474 123.078 213 95.5508 213 61.6034C213 27.656 185.474 0.129028 151.511 0.129028Z" fill="#FF6B00"/>
<path d="M48.0641 38.6817H51.8294C53.1025 38.6817 54.3235 38.1759 55.2238 37.2757C56.124 36.3755 56.6297 35.1545 56.6297 33.8814C56.6297 32.6082 56.124 31.3872 55.2238 30.487C54.3235 29.5868 53.1025 29.081 51.8294 29.081H48.1391C47.416 29.0809 46.7024 29.2456 46.0525 29.5627C45.4027 29.8799 44.8337 30.341 44.3889 30.9111L44.3139 31.0012C41.8837 34.1214 44.1039 38.6817 48.0641 38.6817ZM37.6684 57.163H67.9555C68.6075 57.1995 69.26 57.1026 69.8733 56.8782C70.4865 56.6538 71.0475 56.3067 71.5219 55.8581C71.9964 55.4094 72.3743 54.8687 72.6326 54.269C72.8909 53.6693 73.0241 53.0231 73.0241 52.3702C73.0241 51.7172 72.8909 51.0711 72.6326 50.4713C72.3743 49.8716 71.9964 49.3309 71.5219 48.8823C71.0475 48.4336 70.4865 48.0865 69.8733 47.8621C69.26 47.6377 68.6075 47.5408 67.9555 47.5773H37.6684C37.0165 47.5408 36.3639 47.6377 35.7507 47.8621C35.1375 48.0865 34.5765 48.4336 34.102 48.8823C33.6276 49.3309 33.2496 49.8716 32.9913 50.4713C32.733 51.0711 32.5998 51.7172 32.5998 52.3702C32.5998 53.0231 32.733 53.6693 32.9913 54.269C33.2496 54.8687 33.6276 55.4094 34.102 55.8581C34.5765 56.3067 35.1375 56.6538 35.7507 56.8782C36.3639 57.1026 37.0165 57.1995 37.6684 57.163ZM19.5921 47.5773H4.77109C3.68198 47.5775 2.62594 47.9515 1.7795 48.6369C0.933058 49.3222 0.347518 50.2773 0.120764 51.3426C0.120764 51.3876 0.105763 51.4176 0.105763 51.4476C-0.0392424 52.1375 -0.0285564 52.851 0.137042 53.5362C0.302641 54.2214 0.618983 54.8611 1.06303 55.4086C1.50708 55.9561 2.06765 56.3977 2.70392 56.7012C3.34019 57.0047 4.03614 57.1625 4.74109 57.163H19.5921C20.2441 57.1995 20.8966 57.1026 21.5099 56.8782C22.1231 56.6538 22.6841 56.3067 23.1585 55.8581C23.633 55.4094 24.0109 54.8687 24.2692 54.269C24.5275 53.6693 24.6607 53.0231 24.6607 52.3702C24.6607 51.7172 24.5275 51.0711 24.2692 50.4713C24.0109 49.8716 23.633 49.3309 23.1585 48.8823C22.6841 48.4336 22.1231 48.0865 21.5099 47.8621C20.8966 47.6377 20.2441 47.5408 19.5921 47.5773ZM69.8907 38.6817H88.822C90.0951 38.6817 91.3161 38.1759 92.2164 37.2757C93.1166 36.3755 93.6224 35.1545 93.6224 33.8814C93.6224 32.6082 93.1166 31.3872 92.2164 30.487C91.3161 29.5868 90.0951 29.081 88.822 29.081H69.8907C68.6176 29.081 67.3966 29.5868 66.4963 30.487C65.5961 31.3872 65.0903 32.6082 65.0903 33.8814C65.0903 35.1545 65.5961 36.3755 66.4963 37.2757C67.3966 38.1759 68.6176 38.6817 69.8907 38.6817ZM72.2008 84.5699H67.5205C63.5602 84.5699 61.3401 89.1152 63.7702 92.2355L63.8453 92.3255C64.2901 92.8956 64.859 93.3567 65.5089 93.6739C66.1588 93.991 66.8724 94.1558 67.5955 94.1556H72.2008C73.4256 94.0871 74.5777 93.5522 75.4205 92.6609C76.2633 91.7696 76.7329 90.5894 76.7329 89.3628C76.7329 88.1361 76.2633 86.9559 75.4205 86.0646C74.5777 85.1733 73.4256 84.6385 72.2008 84.5699ZM145.826 11.7248C135.924 11.7093 126.243 14.6558 118.029 20.1854H120.144C122.574 20.1854 124.615 22.0905 124.69 24.5057C124.706 25.1008 124.602 25.6931 124.385 26.2475C124.169 26.802 123.843 27.3074 123.428 27.7339C123.012 28.1605 122.516 28.4994 121.967 28.7308C121.419 28.9621 120.83 29.0812 120.234 29.081H106.883C105.61 29.081 104.389 29.5868 103.489 30.487C102.589 31.3872 102.083 32.6082 102.083 33.8814C102.083 35.1545 102.589 36.3755 103.489 37.2757C104.389 38.1759 105.61 38.6817 106.883 38.6817H112.779C115.209 38.6817 117.264 40.5718 117.324 43.002C117.342 43.5976 117.24 44.1908 117.024 44.7462C116.808 45.3016 116.483 45.8079 116.067 46.2348C115.651 46.6618 115.154 47.0006 114.604 47.2313C114.055 47.4619 113.465 47.5796 112.869 47.5773H86.0168C84.792 47.6459 83.64 48.1807 82.7972 49.072C81.9543 49.9633 81.4847 51.1435 81.4847 52.3702C81.4847 53.5969 81.9543 54.777 82.7972 55.6683C83.64 56.5596 84.792 57.0944 86.0168 57.163H124.42C126.85 57.163 128.905 59.0681 128.965 61.4983C128.983 62.0927 128.881 62.6846 128.666 63.239C128.451 63.7934 128.127 64.299 127.713 64.7257C127.299 65.1525 126.803 65.4916 126.256 65.7232C125.708 65.9547 125.119 66.0739 124.525 66.0736H111.114C109.889 66.1422 108.737 66.677 107.894 67.5683C107.051 68.4596 106.581 69.6398 106.581 70.8665C106.581 72.0932 107.051 73.2733 107.894 74.1646C108.737 75.0559 109.889 75.5908 111.114 75.6593H125.71C128.14 75.6593 130.18 77.5644 130.255 79.9946C130.271 80.5897 130.168 81.182 129.951 81.7365C129.734 82.2909 129.409 82.7963 128.993 83.2229C128.578 83.6494 128.081 83.9883 127.533 84.2197C126.984 84.451 126.395 84.5701 125.8 84.5699H90.2621C89.6102 84.5334 88.9576 84.6303 88.3444 84.8547C87.7312 85.0791 87.1702 85.4262 86.6957 85.8749C86.2213 86.3235 85.8433 86.8642 85.5851 87.464C85.3268 88.0637 85.1935 88.7098 85.1935 89.3628C85.1935 90.0157 85.3268 90.6618 85.5851 91.2616C85.8433 91.8613 86.2213 92.402 86.6957 92.8507C87.1702 93.2993 87.7312 93.6464 88.3444 93.8708C88.9576 94.0952 89.6102 94.1921 90.2621 94.1556H119.589C122.019 94.1556 124.06 96.0607 124.135 98.4909C124.148 99.0855 124.044 99.6768 123.826 100.23C123.609 100.784 123.283 101.289 122.868 101.715C122.453 102.141 121.957 102.48 121.41 102.712C120.862 102.944 120.274 103.064 119.679 103.066H118.089C126.292 108.568 135.949 111.499 145.826 111.482C173.368 111.482 195.705 89.1452 195.705 61.6033C195.705 34.0614 173.368 11.7248 145.826 11.7248ZM169.498 99.0159C169.041 99.3101 168.528 99.5074 167.992 99.5957C167.456 99.684 166.907 99.6613 166.38 99.5292C165.852 99.397 165.358 99.1582 164.927 98.8274C164.495 98.4966 164.137 98.0808 163.872 97.6058L149.501 71.684L133.63 97.9959C133.347 98.4555 132.974 98.8524 132.532 99.1624C132.09 99.4724 131.59 99.6888 131.062 99.7985C130.533 99.9081 129.988 99.9086 129.46 99.7999C128.931 99.6913 128.43 99.4757 127.988 99.1666C127.546 98.8574 127.171 98.4611 126.888 98.0021C126.604 97.543 126.417 97.0308 126.339 96.4969C126.26 95.9631 126.292 95.4188 126.431 94.8975C126.571 94.3762 126.815 93.8889 127.15 93.4656L147.521 68.0988L144.626 62.8934C143.201 60.3132 140.411 58.8581 137.485 59.0081C134.245 59.1881 130.855 57.388 127.585 52.3177C122.559 44.5171 119.709 31.9612 124.3 28.991C128.89 26.0208 139.166 33.8063 144.191 41.6069C147.461 46.6623 147.716 50.5025 146.216 53.3677C145.544 54.6404 145.244 56.0765 145.35 57.5117C145.456 58.9469 145.964 60.3233 146.816 61.4833L170.518 93.3305C170.841 93.7648 171.072 94.2607 171.196 94.7876C171.32 95.3145 171.334 95.8613 171.239 96.3941C171.143 96.9269 170.939 97.4344 170.64 97.8854C170.34 98.3363 169.952 98.7211 169.498 99.0159ZM175.483 48.4174C172.018 53.3677 168.088 60.4182 161.412 60.3732C158.472 60.3582 155.652 61.4833 154.137 63.9885L152.456 66.7787L150.581 64.2735L152.006 62.5034C153.852 60.2082 153.927 57.178 152.892 54.4328C150.551 48.1924 155.817 42.0569 159.282 37.1066C161.577 33.8063 166.347 28.436 168.283 28.0909L155.397 46.5422C155.244 46.7683 155.185 47.0452 155.232 47.314C155.28 47.5828 155.43 47.8226 155.652 47.9823C155.877 48.1393 156.155 48.2005 156.425 48.1527C156.695 48.1049 156.935 47.9519 157.092 47.7273L170.218 28.916C170.369 28.7039 170.587 28.5477 170.837 28.4718C171.086 28.3959 171.354 28.4044 171.598 28.496H171.613C171.778 28.5599 171.926 28.6603 172.046 28.7896C172.166 28.9189 172.256 29.0739 172.308 29.2427C172.36 29.4116 172.373 29.5901 172.346 29.7647C172.319 29.9393 172.253 30.1056 172.153 30.2511L159.027 49.0774C158.95 49.1877 158.896 49.3121 158.867 49.4434C158.838 49.5748 158.836 49.7105 158.859 49.8428C158.883 49.9751 158.933 50.1015 159.005 50.2147C159.078 50.3279 159.172 50.4257 159.282 50.5025C159.392 50.5794 159.517 50.6337 159.648 50.6625C159.779 50.6912 159.915 50.6938 160.047 50.6702C160.18 50.6465 160.306 50.597 160.419 50.5245C160.532 50.4519 160.63 50.3578 160.707 50.2475L174.043 31.1512C174.219 30.8976 174.488 30.7238 174.791 30.6676C175.095 30.6114 175.408 30.6774 175.663 30.8511H175.693C175.819 30.9381 175.927 31.0492 176.009 31.178C176.092 31.3069 176.148 31.4508 176.175 31.6016C176.201 31.7523 176.197 31.9068 176.164 32.0561C176.13 32.2054 176.067 32.3465 175.978 32.4713L162.642 51.5826C162.485 51.8075 162.424 52.0854 162.472 52.3554C162.52 52.6254 162.673 52.8654 162.897 53.0227C163.123 53.1758 163.4 53.2347 163.669 53.1871C163.938 53.1395 164.178 52.9891 164.337 52.7677L177.463 33.9564C177.567 33.813 177.702 33.6947 177.858 33.6105C178.014 33.5262 178.187 33.4779 178.364 33.4693C178.541 33.4606 178.718 33.4918 178.881 33.5605C179.045 33.6293 179.191 33.7338 179.308 33.8664H179.323C179.49 34.0658 179.588 34.3142 179.601 34.5739C179.615 34.8336 179.544 35.0907 179.398 35.3065L166.257 54.1328C166.18 54.2429 166.125 54.3673 166.096 54.4987C166.067 54.6301 166.065 54.7659 166.088 54.8984C166.112 55.0309 166.162 55.1573 166.235 55.2705C166.307 55.3837 166.402 55.4814 166.512 55.5579C166.737 55.7148 167.015 55.7761 167.285 55.7282C167.555 55.6804 167.795 55.5274 167.953 55.3029L180.839 36.8516C181.184 38.7867 177.778 45.1171 175.483 48.4174ZM45.544 66.0736H29.2078C28.5013 66.0737 27.8037 66.2317 27.1662 66.536C26.5286 66.8404 25.9671 67.2834 25.5228 67.8327C25.0784 68.382 24.7625 69.0237 24.5981 69.7108C24.4337 70.3979 24.4249 71.1131 24.5725 71.804C24.5725 71.834 24.5875 71.864 24.5875 71.894C24.8117 72.9606 25.3965 73.9173 26.2435 74.6031C27.0905 75.2889 28.148 75.6619 29.2378 75.6593H45.544C46.7687 75.5908 47.9208 75.0559 48.7636 74.1646C49.6064 73.2733 50.0761 72.0932 50.0761 70.8665C50.0761 69.6398 49.6064 68.4596 48.7636 67.5683C47.9208 66.677 46.7687 66.1422 45.544 66.0736ZM93.0523 75.6593C93.7043 75.6958 94.3568 75.5989 94.97 75.3745C95.5833 75.1501 96.1443 74.803 96.6187 74.3544C97.0932 73.9057 97.4711 73.365 97.7294 72.7653C97.9877 72.1656 98.1209 71.5194 98.1209 70.8665C98.1209 70.2135 97.9877 69.5674 97.7294 68.9676C97.4711 68.3679 97.0932 67.8272 96.6187 67.3786C96.1443 66.9299 95.5833 66.5828 94.97 66.3584C94.3568 66.134 93.7043 66.0371 93.0523 66.0736H63.6052C62.9533 66.0371 62.3007 66.134 61.6875 66.3584C61.0743 66.5828 60.5133 66.9299 60.0388 67.3786C59.5644 67.8272 59.1865 68.3679 58.9282 68.9676C58.6699 69.5674 58.5367 70.2135 58.5367 70.8665C58.5367 71.5194 58.6699 72.1656 58.9282 72.7653C59.1865 73.365 59.5644 73.9057 60.0388 74.3544C60.5133 74.803 61.0743 75.1501 61.6875 75.3745C62.3007 75.5989 62.9533 75.6958 63.6052 75.6593H93.0523Z" fill="#FF6B00"/>
</svg>
