<svg width="64" height="64" viewBox="0 0 64 64" fill="none" xmlns="http://www.w3.org/2000/svg">
<rect width="64" height="64" rx="31" fill="#FF6039"/>
<g clip-path="url(#clip0_3099_3644)">
<path d="M20.9563 25.017H27.6773L26.6161 33.6836C26.4392 34.0374 26.2624 34.0374 26.0855 34.0374H18.8338C18.8338 33.5068 19.0107 33.153 19.0107 32.6224H22.9018V31.3843H16.0039V32.7993H17.5957C17.4189 33.6836 17.4189 34.568 17.242 35.4523H22.3712C23.2556 35.4523 23.7862 35.983 23.6093 36.8673C22.3249 36.9413 21.1197 37.5122 20.2488 38.4591L21.1331 39.3435C21.723 38.8129 22.4448 38.4509 23.2228 38.2953C24.0008 38.1397 24.8063 38.1963 25.5549 38.4591C27.3236 38.9897 27.8542 40.4047 28.5617 41.9965L29.7998 41.4659C29.5391 40.3943 28.9887 39.415 28.2088 38.6351C27.429 37.8552 26.4497 37.3049 25.378 37.0442L25.0243 36.6904C25.0393 36.2705 24.9794 35.8513 24.8474 35.4523C27.1708 35.2487 29.5117 35.4888 31.7453 36.1598C31.3916 37.9285 31.0378 39.6972 30.5072 41.6428H31.9222L33.514 34.7449H32.9834L29.446 34.0374C28.3848 33.8605 28.0311 33.3299 28.2079 32.2687C28.1332 31.5423 28.2554 30.8092 28.5617 30.1463C29.2825 28.7855 30.1105 27.4844 31.0378 26.2551C31.1704 25.8908 31.4189 25.58 31.7453 25.3708C32.8206 26.0367 33.8277 26.8069 34.7521 27.6701C35.4052 28.3366 36.2952 28.718 37.2283 28.7313H38.2895L40.9426 29.085C40.7537 29.3771 40.49 29.6131 40.1789 29.7687C39.8679 29.9242 39.5208 29.9935 39.1739 29.9694H36.1671L35.2827 29.6156L32.9834 28.2007C32.4074 29.5902 31.758 30.9481 31.0378 32.2687L34.5752 34.0374C35.1059 34.3911 35.2827 34.568 35.1059 35.0986C34.9759 35.8937 34.7378 36.6673 34.3984 37.3979L33.3372 41.4659L34.7521 41.9965C34.7521 41.1122 35.2827 40.9353 35.8133 40.7584H36.1671C37.2866 40.2612 38.2536 39.4749 38.9685 38.4801C39.6835 37.4854 40.1206 36.3183 40.2351 35.0986C40.4114 34.223 40.4114 33.3211 40.2351 32.4456H38.8201C39.1763 33.8191 38.9861 35.2773 38.2895 36.5136C38.0427 37.1784 37.6651 37.7871 37.179 38.3035C36.693 38.82 36.1083 39.2337 35.4596 39.5204V38.8129L36.5208 35.2755C36.618 34.8736 36.5847 34.4513 36.4257 34.0696C36.2667 33.688 35.9903 33.367 35.6365 33.153C35.5541 33.0432 35.4473 32.9541 35.3245 32.8927C35.2017 32.8313 35.0663 32.7993 34.929 32.7993L32.8065 31.7381C33.061 31.2424 33.3568 30.7691 33.6909 30.3231L34.929 31.0306L35.4596 31.3843H39.5276C39.967 31.3984 40.4037 31.3098 40.8029 31.1257C41.2021 30.9416 41.553 30.667 41.8276 30.3237C42.1023 29.9804 42.2931 29.5778 42.3851 29.1479C42.4771 28.718 42.4676 28.2726 42.3575 27.8469H41.8269L36.8746 27.1395L35.9902 26.7857L32.0991 23.7789L31.5685 23.4252L28.9154 26.432C29.0923 25.5476 29.0923 24.6633 29.2691 23.7789H18.8338V25.7245H20.0719C20.0719 25.017 20.0719 25.017 20.9563 25.017Z" fill="white"/>
<path d="M45.718 40.9353H46.0718C45.8477 40.3171 45.4707 39.7657 44.9758 39.3327C44.4809 38.8997 43.8844 38.5991 43.2419 38.4591C43.5528 37.2986 43.619 36.0861 43.4363 34.8986C43.2536 33.7111 42.826 32.5746 42.1806 31.5612L41.1194 32.2687H41.2963C42.1508 34.0254 42.3995 36.0156 42.0038 37.9285C41.8269 38.1054 41.8269 38.2823 41.4732 38.4591C40.5142 38.6444 39.6434 39.1419 38.997 39.8741L40.0582 40.7584C40.5116 40.1899 41.1557 39.805 41.8711 39.6749C42.5865 39.5448 43.3249 39.6784 43.9493 40.051H43.4187L38.2895 42.704H19.5413C19.5827 42.406 19.6418 42.1107 19.7182 41.8197C19.7182 41.4659 19.895 41.2891 20.2488 41.4659H21.4869V40.4047H16.0039V41.8197H18.3032C18.1263 42.704 18.1263 43.5884 17.9495 44.4727H19.5413C19.7048 45.4422 20.1998 46.3249 20.9417 46.9701C21.6836 47.6152 22.6265 47.9828 23.6093 48.0101C25.5549 48.0101 26.9698 46.9489 27.8542 44.4727H38.6432L45.718 40.9353ZM23.7862 46.5952C23.1435 46.6155 22.5131 46.4164 21.9987 46.0306C21.4844 45.6448 21.1167 45.0954 20.9563 44.4727H26.2624C26.1448 45.0517 25.8375 45.5749 25.3889 45.9593C24.9404 46.3438 24.3763 46.5676 23.7862 46.5952Z" fill="white"/>
<path d="M35.1059 23.6021C35.5074 23.6281 35.91 23.5681 36.2866 23.4262C36.6631 23.2843 37.0051 23.0637 37.2897 22.7791C37.5742 22.4945 37.7948 22.1526 37.9368 21.776C38.0787 21.3994 38.1386 20.9969 38.1126 20.5953C38.1139 19.7807 37.8029 18.9966 37.2435 18.4044C36.6842 17.8122 35.9192 17.4569 35.1059 17.4116C34.6878 17.4116 34.2738 17.494 33.8875 17.654C33.5013 17.814 33.1503 18.0485 32.8547 18.3441C32.559 18.6397 32.3245 18.9907 32.1645 19.3769C32.0045 19.7632 31.9222 20.1772 31.9222 20.5953C31.9215 21.0055 32.0047 21.4115 32.1668 21.7883C32.3288 22.1651 32.5662 22.5048 32.8644 22.7865C33.1627 23.0681 33.5154 23.2858 33.9008 23.426C34.2863 23.5663 34.6964 23.6262 35.1059 23.6021ZM35.1059 18.8266C35.5749 18.8266 36.0248 19.0129 36.3565 19.3446C36.6882 19.6763 36.8746 20.1262 36.8746 20.5953C36.8759 20.8201 36.8297 21.0426 36.7389 21.2482C36.6481 21.4539 36.5147 21.638 36.3476 21.7883C36.1805 21.9387 35.9835 22.052 35.7695 22.1207C35.5554 22.1895 35.3293 22.2121 35.1059 22.1871C34.8824 22.2121 34.6563 22.1895 34.4422 22.1207C34.2282 22.052 34.0312 21.9387 33.8641 21.7883C33.697 21.638 33.5636 21.4539 33.4728 21.2482C33.382 21.0426 33.3358 20.8201 33.3372 20.5953C33.3087 20.3562 33.3349 20.1137 33.4137 19.8862C33.4925 19.6586 33.622 19.4519 33.7922 19.2817C33.9625 19.1114 34.1692 18.982 34.3967 18.9031C34.6243 18.8243 34.8667 18.7981 35.1059 18.8266Z" fill="white"/>
<path d="M46.0718 41.8197L44.8337 42.5271C45.3643 44.2958 45.0106 45.5339 43.5956 46.2414C42.1806 46.9489 41.1194 46.5952 39.7045 45.0033L38.4664 45.5339C38.8083 46.2047 39.3096 46.7813 39.9264 47.213C40.5432 47.6448 41.2565 47.9185 42.0038 48.0101C42.8083 48.0435 43.6075 47.865 44.3214 47.4925C45.0353 47.12 45.6389 46.5666 46.0718 45.8877C46.4124 45.2638 46.5908 44.5644 46.5908 43.8537C46.5908 43.1429 46.4124 42.4435 46.0718 41.8197Z" fill="white"/>
<path d="M18.1263 28.5544C18.1669 28.9753 18.1063 29.3998 17.9495 29.7925H19.3644C19.412 29.554 19.4711 29.3179 19.5413 29.085C19.5413 28.9443 19.5972 28.8093 19.6967 28.7098C19.7962 28.6103 19.9312 28.5544 20.0719 28.5544H24.3168V27.1395H16.0039V28.5544H18.1263Z" fill="white"/>
</g>
<defs>
<clipPath id="clip0_3099_3644">
<rect width="32" height="32" fill="white" transform="translate(16 16)"/>
</clipPath>
</defs>
</svg>
