<svg width="64" height="64" viewBox="0 0 64 64" fill="none" xmlns="http://www.w3.org/2000/svg">
<rect width="64" height="64" rx="31" fill="#2478DA"/>
<g clip-path="url(#clip0_3099_3340)">
<path d="M38.0039 20.001C38.0039 19.4705 38.2146 18.9618 38.5897 18.5868C38.9648 18.2117 39.4735 18.001 40.0039 18.001H44.0039C44.5343 18.001 45.043 18.2117 45.4181 18.5868C45.7932 18.9618 46.0039 19.4705 46.0039 20.001V44.001H47.0039C47.2691 44.001 47.5235 44.1063 47.711 44.2939C47.8986 44.4814 48.0039 44.7358 48.0039 45.001C48.0039 45.2662 47.8986 45.5205 47.711 45.7081C47.5235 45.8956 47.2691 46.001 47.0039 46.001H17.0039C16.7387 46.001 16.4843 45.8956 16.2968 45.7081C16.1093 45.5205 16.0039 45.2662 16.0039 45.001C16.0039 44.7358 16.1093 44.4814 16.2968 44.2939C16.4843 44.1063 16.7387 44.001 17.0039 44.001H18.0039V38.001C18.0039 37.4705 18.2146 36.9618 18.5897 36.5868C18.9648 36.2117 19.4735 36.001 20.0039 36.001H24.0039C24.5343 36.001 25.043 36.2117 25.4181 36.5868C25.7932 36.9618 26.0039 37.4705 26.0039 38.001V44.001H28.0039V30.001C28.0039 29.4705 28.2146 28.9618 28.5897 28.5868C28.9648 28.2117 29.4735 28.001 30.0039 28.001H34.0039C34.5343 28.001 35.043 28.2117 35.4181 28.5868C35.7932 28.9618 36.0039 29.4705 36.0039 30.001V44.001H38.0039V20.001ZM40.0039 44.001H44.0039V20.001H40.0039V44.001ZM34.0039 44.001V30.001H30.0039V44.001H34.0039ZM24.0039 44.001V38.001H20.0039V44.001H24.0039Z" fill="white"/>
</g>
<defs>
<clipPath id="clip0_3099_3340">
<rect width="32" height="32" fill="white" transform="translate(16 16)"/>
</clipPath>
</defs>
</svg>
