<svg width="64" height="64" viewBox="0 0 64 64" fill="none" xmlns="http://www.w3.org/2000/svg">
<rect width="64" height="64" rx="31" fill="#5654D4"/>
<g clip-path="url(#clip0_3099_6769)">
<path fill-rule="evenodd" clip-rule="evenodd" d="M38.0039 46.0012C40.1256 46.0012 42.1605 45.1584 43.6608 43.6581C45.1611 42.1578 46.0039 40.123 46.0039 38.0012C46.0039 35.8795 45.1611 33.8447 43.6608 32.3444C42.1605 30.8441 40.1256 30.0012 38.0039 30.0012C35.8822 30.0012 33.8473 30.8441 32.3471 32.3444C30.8468 33.8447 30.0039 35.8795 30.0039 38.0012C30.0039 40.123 30.8468 42.1578 32.3471 43.6581C33.8473 45.1584 35.8822 46.0012 38.0039 46.0012ZM48.0039 38.0012C48.0039 40.6534 46.9503 43.1969 45.075 45.0723C43.1996 46.9477 40.6561 48.0012 38.0039 48.0012C35.3517 48.0012 32.8082 46.9477 30.9328 45.0723C29.0575 43.1969 28.0039 40.6534 28.0039 38.0012C28.0039 35.3491 29.0575 32.8055 30.9328 30.9302C32.8082 29.0548 35.3517 28.0012 38.0039 28.0012C40.6561 28.0012 43.1996 29.0548 45.075 30.9302C46.9503 32.8055 48.0039 35.3491 48.0039 38.0012Z" fill="white"/>
<path d="M34.8799 39.8892C34.9739 41.0812 35.9159 42.0092 37.6059 42.1212V43.0012H38.3559V42.1152C40.1059 41.9932 41.1279 41.0572 41.1279 39.7012C41.1279 38.4652 40.3479 37.8292 38.9479 37.5012L38.3559 37.3612V34.9612C39.1079 35.0472 39.5839 35.4572 39.6979 36.0252H41.0139C40.9199 34.8752 39.9339 33.9772 38.3559 33.8792V33.0012H37.6059V33.9012C36.1119 34.0472 35.0959 34.9452 35.0959 36.2172C35.0959 37.3412 35.8519 38.0572 37.1099 38.3492L37.6059 38.4712V41.0152C36.8379 40.8992 36.3279 40.4752 36.2139 39.8892H34.8799ZM37.5999 37.1812C36.8619 37.0112 36.4619 36.6612 36.4619 36.1372C36.4619 35.5492 36.8939 35.1092 37.6059 34.9812V37.1812H37.5999ZM38.4639 38.6732C39.3619 38.8812 39.7739 39.2172 39.7739 39.8112C39.7739 40.4892 39.2599 40.9532 38.3559 41.0392V38.6492L38.4639 38.6732Z" fill="white"/>
<path d="M18.0039 16.0012C17.4735 16.0012 16.9648 16.2119 16.5897 16.587C16.2146 16.9621 16.0039 17.4708 16.0039 18.0012V34.0012C16.0039 34.5317 16.2146 35.0404 16.5897 35.4154C16.9648 35.7905 17.4735 36.0012 18.0039 36.0012H26.1699C26.2859 35.3132 26.4599 34.6452 26.6859 34.0012H22.0039C22.0039 32.9404 21.5825 31.9229 20.8323 31.1728C20.0822 30.4226 19.0648 30.0012 18.0039 30.0012V22.0012C19.0648 22.0012 20.0822 21.5798 20.8323 20.8296C21.5825 20.0795 22.0039 19.0621 22.0039 18.0012H42.0039C42.0039 19.0621 42.4253 20.0795 43.1755 20.8296C43.9256 21.5798 44.943 22.0012 46.0039 22.0012V29.0572C46.7639 29.7372 47.4379 30.5132 48.0039 31.3652V18.0012C48.0039 17.4708 47.7932 16.9621 47.4181 16.587C47.043 16.2119 46.5343 16.0012 46.0039 16.0012H18.0039Z" fill="white"/>
<path d="M35.9999 26.1672L36.0039 26.0012C36.0035 25.3124 35.8252 24.6354 35.4863 24.0357C35.1474 23.436 34.6594 22.934 34.0696 22.5783C33.4797 22.2225 32.808 22.0252 32.1195 22.0053C31.4309 21.9854 30.7489 22.1436 30.1395 22.4647C29.5301 22.7857 29.0139 23.2587 28.641 23.8378C28.268 24.4169 28.0509 25.0825 28.0107 25.7702C27.9705 26.4578 28.1086 27.1442 28.4115 27.7628C28.7145 28.3814 29.172 28.9114 29.7399 29.3012C31.4674 27.6558 33.6474 26.5644 35.9999 26.1672Z" fill="white"/>
</g>
<defs>
<clipPath id="clip0_3099_6769">
<rect width="32" height="32" fill="white" transform="translate(16 16)"/>
</clipPath>
</defs>
</svg>
